<svg xmlns="http://www.w3.org/2000/svg" style="display:none">
  <symbol id="dashboard" viewBox="0 0 24 24">
    <path fill="currentColor" d="M3 3h8v8H3V3zm10 0h8v4h-8V3zm0 6h8v12h-8V9zm-10 4h8v8H3v-8z"/>
  </symbol>
  <symbol id="users" viewBox="0 0 24 24">
    <circle cx="9" cy="8" r="4" fill="currentColor"/>
    <circle cx="17" cy="8" r="3" fill="currentColor"/>
    <path fill="currentColor" d="M2 21v-1c0-3 4-5 7-5s7 2 7 5v1H2zm14 0v-1c0-2-.7-3.3-1.8-4.3 2 .2 3.8 1 4.8 2.3v3H16z"/>
  </symbol>
  <symbol id="car" viewBox="0 0 24 24">
    <rect x="3" y="10" width="18" height="5" fill="currentColor"/>
    <circle cx="7" cy="17" r="2" fill="currentColor"/>
    <circle cx="17" cy="17" r="2" fill="currentColor"/>
  </symbol>
  <symbol id="orders" viewBox="0 0 24 24">
    <path fill="currentColor" d="M4 4h16v2H4zm0 5h16v2H4zm0 5h10v2H4z"/>
  </symbol>
  <symbol id="euro" viewBox="0 0 24 24">
    <path fill="currentColor" d="M15.5 5.5a6 6 0 0 0-10.5 4.5H3v2h2c0 .7.1 1.4.3 2H3v2h3.1a6 6 0 0 0 10.4 2l-1.7-1a4 4 0 0 1-6.5-1H15v-2H8.4c-.2-.6-.4-1.3-.4-2h7v-2H8.2a4 4 0 0 1 6.6-1l.7-.5z"/>
  </symbol>
  <symbol id="settings" viewBox="0 0 24 24">
    <path fill="currentColor" d="M12 8a4 4 0 1 0 0 8 4 4 0 0 0 0-8zm9 4a7.8 7.8 0 0 0-.1-1l2.1-1.6-2-3.5-2.5 1a8 8 0 0 0-1.7-1L16 2h-4l-.8 2.9a8 8 0 0 0-1.7 1l-2.5-1-2 3.5L5.1 11a8 8 0 0 0 0 2l-2.1 1.6 2 3.5 2.5-1a8 8 0 0 0 1.7 1L12 22h4l.8-2.9a8 8 0 0 0 1.7-1l2.5 1 2-3.5-2.1-1.6c.1-.6.1-1.3.1-2z"/>
  </symbol>
  <symbol id="logout" viewBox="0 0 24 24">
    <path fill="currentColor" d="M16 13v-2H7V8l-5 4 5 4v-3h9zM20 3h-8v2h8v14h-8v2h8c1.1 0 2-.9 2-2V5c0-1.1-.9-2-2-2z"/>
  </symbol>
  <symbol id="search" viewBox="0 0 24 24">
    <circle cx="11" cy="11" r="7" stroke="currentColor" stroke-width="2" fill="none"/>
    <line x1="16" y1="16" x2="22" y2="22" stroke="currentColor" stroke-width="2"/>
  </symbol>
  <symbol id="plus" viewBox="0 0 24 24">
    <path fill="currentColor" d="M11 11V5h2v6h6v2h-6v6h-2v-6H5v-2z"/>
  </symbol>
  <symbol id="edit" viewBox="0 0 24 24">
    <path fill="currentColor" d="M3 17.3V21h3.7l11-11.1-3.7-3.7L3 17.3zm18.7-10.8a1 1 0 0 0 0-1.4l-2.8-2.8a1 1 0 0 0-1.4 0l-1.8 1.8 4.1 4.1 1.9-1.7z"/>
  </symbol>
  <symbol id="trash" viewBox="0 0 24 24">
    <path fill="currentColor" d="M3 6h18v2H3zm2 3h14l-1 12H6L5 9zm5-5h4l1 1h5v2H4V5h5l1-1z"/>
  </symbol>
  <symbol id="filter" viewBox="0 0 24 24">
    <path fill="currentColor" d="M3 5h18v2l-7 7v5l-4 2v-7L3 7z"/>
  </symbol>
</svg>
